<svg width="98" height="74" viewBox="0 0 98 74" fill="none" xmlns="http://www.w3.org/2000/svg">
<path d="M73.152 34.64C75.456 28.752 78.016 26.96 82.624 25.168C85.184 24.144 88 22.096 88 18.768C88 16.208 86.272 14.416 83.904 14.416C81.344 14.416 79.232 16.4 78.784 19.28L69.824 15.952C71.36 9.808 76.992 5.712 84.16 5.712C92.288 5.712 97.728 10.896 97.728 18.256C97.728 25.424 92.352 29.52 88 30.8C83.392 32.144 80.832 33.36 79.04 37.2L73.152 34.64ZM64.448 36.176L56 7.76L65.472 5.456L70.848 34.64L64.448 36.176ZM71.232 50.512C68.032 50.512 65.728 48.144 65.728 44.88C65.728 41.616 68.032 39.248 71.232 39.248C74.432 39.248 76.736 41.616 76.736 44.88C76.736 48.144 74.432 50.512 71.232 50.512Z" fill="#747474"/>
<path d="M6.0672 50.448C2.9952 44.9952 1.536 39.2352 1.536 32.5536C1.536 25.9104 2.9568 20.1888 5.9904 14.8128L11.2128 17.1168C8.1024 21.9168 6.6048 26.9472 6.6048 32.6304C6.6048 38.2368 8.1024 43.2672 11.2896 48.144L6.0672 50.448ZM14.242 33.048C15.714 33.432 18.082 33.368 19.234 31.768C16.162 31.768 13.986 29.528 13.986 26.392C13.986 23.192 16.226 20.888 19.298 20.888C22.882 20.888 25.25 24.088 25.25 28.568C25.25 35.736 19.426 38.808 13.986 37.72L14.242 33.048ZM27.042 33.048C28.514 33.432 30.882 33.368 32.034 31.768C28.962 31.768 26.786 29.528 26.786 26.392C26.786 23.192 29.026 20.888 32.098 20.888C35.682 20.888 38.05 24.088 38.05 28.568C38.05 35.736 32.226 38.808 26.786 37.72L27.042 33.048ZM39.953 48.144C43.1402 43.2672 44.6378 38.2368 44.6378 32.6304C44.6378 26.9472 43.1402 21.9168 40.0298 17.1168L45.2522 14.8128C48.2858 20.1888 49.7066 25.9104 49.7066 32.5536C49.7066 39.2352 48.2474 44.9952 45.1754 50.448L39.953 48.144Z" fill="#747474"/>
</svg>
