<svg width="509" height="94" viewBox="0 0 509 94" fill="none" xmlns="http://www.w3.org/2000/svg">
<path d="M21.0578 72V21H0.457813V7H56.4578V21H35.8578V72H21.0578ZM60.5031 22H74.5031V72H60.5031V22ZM67.5031 17.2C62.7031 17.2 59.3031 13.7 59.3031 8.8C59.3031 3.89999 62.7031 0.399998 67.5031 0.399998C72.3031 0.399998 75.7031 3.89999 75.7031 8.8C75.7031 13.7 72.3031 17.2 67.5031 17.2ZM83.1359 72V22H93.7359L96.2359 29.8C98.8359 24.6 104.836 20.8 111.736 20.8C122.236 20.8 129.736 29.3 129.736 41.2V72H115.736V44C115.736 38.4 112.136 34.4 106.736 34.4C101.136 34.4 97.1359 38.7 97.1359 44.8V72H83.1359ZM139.335 80.4C143.735 80.4 148.035 77.7 149.735 74L151.335 70.4L131.535 22H147.135L157.735 55.2L166.935 22H182.335L161.335 79.2C158.235 87.6 152.735 92.9 145.935 93.2L139.335 80.4ZM221.136 72V21H200.536V7H256.536V21H235.936V72H221.136ZM268.824 73.2C259.324 73.2 252.424 67 252.424 58.4C252.424 52 257.424 46.3 264.424 44.8L280.824 41.4C282.024 41.2 282.624 40.4 282.624 39.6C282.624 36.1 279.724 33.6 275.624 33.6C271.624 33.6 268.424 36.3 268.024 40L254.424 35.2C256.724 26.8 265.324 20.8 275.024 20.8C287.524 20.8 296.624 28.7 296.624 39.6V62L296.824 72H285.824L283.624 66.2C280.424 70.5 275.124 73.2 268.824 73.2ZM267.224 55.6C267.224 58.3 269.224 60.2 272.824 60.2C278.024 60.2 282.624 56 282.624 49.2V48.3C281.524 48.7 280.224 49 279.224 49.2L271.624 50.8C268.824 51.4 267.224 53.2 267.224 55.6ZM304.996 72V4H318.996V72H304.996ZM360.02 72L347.92 51.3L342.02 57.5V72H328.02V4H342.02V39.7L357.62 22H375.62L357.12 41.5L377.22 72H360.02ZM402.266 73.2C387.366 73.2 376.866 62.3 376.866 47C376.866 31.8 387.266 20.8 401.666 20.8C418.366 20.8 427.466 35.6 425.666 50.4H391.466C392.566 56.2 396.766 60 402.266 60C406.466 60 409.866 57.8 411.066 54.4L424.666 59.6C421.866 67.6 413.066 73.2 402.266 73.2ZM391.566 42.4H411.266C410.466 37.4 406.466 33.8 401.466 33.8C396.666 33.8 392.966 37.2 391.566 42.4ZM432.265 72V22H443.065L445.465 28.3C447.965 22 456.165 18.9 463.065 22L461.265 37.6C453.665 34 446.265 36.8 446.265 45.6V72H432.265ZM487.114 73.2C474.314 73.2 464.614 66.6 463.914 57.2L480.314 53.8C480.514 58.4 483.614 61.4 488.314 61.4C491.714 61.4 493.914 59.6 493.914 56.8C493.914 47.6 466.314 50.8 466.314 34.8C466.314 26.4 474.514 20.8 486.114 20.8C498.514 20.8 507.114 26.8 507.514 35.2L491.914 38.4C491.914 34.6 489.314 32.2 485.314 32.2C482.314 32.2 480.314 33.7 480.314 36C480.314 44.8 508.714 41.2 508.714 57.6C508.714 66.7 499.814 73.2 487.114 73.2Z" fill="#4E4B52"/>
</svg>
