<svg width="137" height="130" viewBox="0 0 137 130" fill="none" xmlns="http://www.w3.org/2000/svg">
<path d="M53.144 53.512C50.776 53.512 49.048 51.72 49.048 49.288C49.048 46.856 50.776 45.064 53.144 45.064C55.512 45.064 57.24 46.856 57.24 49.288C57.24 51.72 55.512 53.512 53.144 53.512ZM65.3165 53.512C62.9485 53.512 61.2205 51.72 61.2205 49.288C61.2205 46.856 62.9485 45.064 65.3165 45.064C67.6845 45.064 69.4125 46.856 69.4125 49.288C69.4125 51.72 67.6845 53.512 65.3165 53.512ZM77.489 53.512C75.121 53.512 73.393 51.72 73.393 49.288C73.393 46.856 75.121 45.064 77.489 45.064C79.857 45.064 81.585 46.856 81.585 49.288C81.585 51.72 79.857 53.512 77.489 53.512Z" fill="#747474"/>
<path d="M53.9865 102.512C51.6185 102.512 49.8905 100.72 49.8905 98.288C49.8905 95.856 51.6185 94.064 53.9865 94.064C56.3545 94.064 58.0825 95.856 58.0825 98.288C58.0825 100.72 56.3545 102.512 53.9865 102.512ZM66.159 102.512C63.791 102.512 62.063 100.72 62.063 98.288C62.063 95.856 63.791 94.064 66.159 94.064C68.527 94.064 70.255 95.856 70.255 98.288C70.255 100.72 68.527 102.512 66.159 102.512ZM78.3315 102.512C75.9635 102.512 74.2355 100.72 74.2355 98.288C74.2355 95.856 75.9635 94.064 78.3315 94.064C80.6995 94.064 82.4275 95.856 82.4275 98.288C82.4275 100.72 80.6995 102.512 78.3315 102.512Z" fill="#747474"/>
<path d="M101.407 106.141C98.9112 100.611 97.5672 94.6208 97.5672 88.784C97.5672 82.8704 98.8728 76.9568 101.33 71.7344L104.172 72.3488C102.175 76.9952 101.1 82.6016 101.1 88.8608C101.1 95.1968 102.214 100.842 104.326 105.526L101.407 106.141ZM115.087 79.576C112.783 79.064 110.479 80.088 110.479 82.392C113.295 82.136 115.343 83.864 115.343 86.488C115.343 88.856 113.743 90.584 111.503 90.584C108.815 90.584 106.895 88.088 106.895 84.568C106.895 79.96 109.967 75.992 115.343 76.76L115.087 79.576ZM125.583 79.576C123.279 79.064 120.975 80.088 120.975 82.392C123.791 82.136 125.839 83.864 125.839 86.488C125.839 88.856 124.239 90.584 121.999 90.584C119.311 90.584 117.391 88.088 117.391 84.568C117.391 79.96 120.463 75.992 125.839 76.76L125.583 79.576ZM128.415 105.526C130.527 100.842 131.64 95.1968 131.64 88.8608C131.64 82.6016 130.565 76.9952 128.568 72.3488L131.41 71.7344C133.867 76.9568 135.173 82.8704 135.173 88.784C135.173 94.6208 133.829 100.611 131.333 106.141L128.415 105.526Z" fill="#747474"/>
<path d="M5.6832 78.1408C3.1872 72.6112 1.8432 66.6208 1.8432 60.784C1.8432 54.8704 3.1488 48.9568 5.6064 43.7344L8.448 44.3488C6.4512 48.9952 5.376 54.6016 5.376 60.8608C5.376 67.1968 6.4896 72.8416 8.6016 77.5264L5.6832 78.1408ZM11.683 60.152C13.987 60.664 16.291 59.64 16.291 57.336C13.475 57.592 11.427 55.864 11.427 53.24C11.427 50.872 13.027 49.144 15.267 49.144C17.955 49.144 19.875 51.64 19.875 55.16C19.875 59.768 16.803 63.736 11.427 62.968L11.683 60.152ZM22.179 60.152C24.483 60.664 26.787 59.64 26.787 57.336C23.971 57.592 21.923 55.864 21.923 53.24C21.923 50.872 23.523 49.144 25.763 49.144C28.451 49.144 30.371 51.64 30.371 55.16C30.371 59.768 27.299 63.736 21.923 62.968L22.179 60.152ZM32.6906 77.5264C34.8026 72.8416 35.9162 67.1968 35.9162 60.8608C35.9162 54.6016 34.841 48.9952 32.8442 44.3488L35.6858 43.7344C38.1434 48.9568 39.449 54.8704 39.449 60.784C39.449 66.6208 38.105 72.6112 35.609 78.1408L32.6906 77.5264Z" fill="#747474"/>
</svg>
